<svg class="animated" id="freepik_stories-design-tools" xmlns="http://www.w3.org/2000/svg" viewBox="0 0 500 500" version="1.1" xmlns:xlink="http://www.w3.org/1999/xlink" xmlns:svgjs="http://svgjs.com/svgjs"><style>svg#freepik_stories-design-tools:not(.animated) .animable {opacity: 0;}svg#freepik_stories-design-tools.animated #freepik--background-complete--inject-5 {animation: 1s 1 forwards cubic-bezier(.36,-0.01,.5,1.38) zoomIn;animation-delay: 0s;}svg#freepik_stories-design-tools.animated #freepik--Shadow--inject-5 {animation: 1s 1 forwards cubic-bezier(.36,-0.01,.5,1.38) fadeIn;animation-delay: 0s;}svg#freepik_stories-design-tools.animated #freepik--Device--inject-5 {animation: 1s 1 forwards cubic-bezier(.36,-0.01,.5,1.38) slideUp;animation-delay: 0s;}svg#freepik_stories-design-tools.animated #freepik--pen-tool--inject-5 {animation: 1s 1 forwards cubic-bezier(.36,-0.01,.5,1.38) zoomIn;animation-delay: 0s;}svg#freepik_stories-design-tools.animated #freepik--color-palette--inject-5 {animation: 1s 1 forwards cubic-bezier(.36,-0.01,.5,1.38) slideRight;animation-delay: 0s;}            @keyframes zoomIn {                0% {                    opacity: 0;                    transform: scale(0.5);                }                100% {                    opacity: 1;                    transform: scale(1);                }            }                    @keyframes fadeIn {                0% {                    opacity: 0;                }                100% {                    opacity: 1;                }            }                    @keyframes slideUp {                0% {                    opacity: 0;                    transform: translateY(30px);                }                100% {                    opacity: 1;                    transform: inherit;                }            }                    @keyframes slideRight {                0% {                    opacity: 0;                    transform: translateX(30px);                }                100% {                    opacity: 1;                    transform: translateX(0);                }            }        </style><g id="freepik--background-complete--inject-5" class="animable" style="transform-origin: 250px 226.87px;"><rect y="382.4" width="500" height="0.25" style="fill: rgb(235, 235, 235); transform-origin: 250px 382.525px;" id="elk65hxlldw2" class="animable"></rect><rect x="372.33" y="398.49" width="77.57" height="0.25" style="fill: rgb(235, 235, 235); transform-origin: 411.115px 398.615px;" id="eloqf23bg81b9" class="animable"></rect><rect x="278" y="394.99" width="55.33" height="0.25" style="fill: rgb(235, 235, 235); transform-origin: 305.665px 395.115px;" id="el5790b8xye6b" class="animable"></rect><rect x="356.76" y="389.21" width="59.02" height="0.25" style="fill: rgb(235, 235, 235); transform-origin: 386.27px 389.335px;" id="el4jdlqxdmkl" class="animable"></rect><rect x="52.46" y="390.89" width="12.69" height="0.25" style="fill: rgb(235, 235, 235); transform-origin: 58.805px 391.015px;" id="el68kba7xobic" class="animable"></rect><rect x="74.06" y="390.89" width="71.61" height="0.25" style="fill: rgb(235, 235, 235); transform-origin: 109.865px 391.015px;" id="elg4godmosjt" class="animable"></rect><rect x="173.16" y="395.11" width="46.84" height="0.25" style="fill: rgb(235, 235, 235); transform-origin: 196.58px 395.235px;" id="el757sgqraabc" class="animable"></rect><path d="M237,337.8H43.91a5.71,5.71,0,0,1-5.7-5.71V60.66A5.71,5.71,0,0,1,43.91,55H237a5.71,5.71,0,0,1,5.71,5.71V332.09A5.71,5.71,0,0,1,237,337.8ZM43.91,55.2a5.46,5.46,0,0,0-5.45,5.46V332.09a5.46,5.46,0,0,0,5.45,5.46H237a5.47,5.47,0,0,0,5.46-5.46V60.66A5.47,5.47,0,0,0,237,55.2Z" style="fill: rgb(235, 235, 235); transform-origin: 140.46px 196.4px;" id="el4yvxk7zn5sw" class="animable"></path><path d="M453.31,337.8H260.21a5.72,5.72,0,0,1-5.71-5.71V60.66A5.72,5.72,0,0,1,260.21,55h193.1A5.71,5.71,0,0,1,459,60.66V332.09A5.71,5.71,0,0,1,453.31,337.8ZM260.21,55.2a5.47,5.47,0,0,0-5.46,5.46V332.09a5.47,5.47,0,0,0,5.46,5.46h193.1a5.47,5.47,0,0,0,5.46-5.46V60.66a5.47,5.47,0,0,0-5.46-5.46Z" style="fill: rgb(235, 235, 235); transform-origin: 356.75px 196.4px;" id="elzqld8jyku9b" class="animable"></path><rect x="165.95" y="153.59" width="267.43" height="174.22" rx="12.32" style="fill: rgb(250, 250, 250); transform-origin: 299.665px 240.7px;" id="elfe3w3cln6gs" class="animable"></rect><path d="M433.25,320.85h-3.14v-1h3.08Zm-6.22,0H424v-1H427Zm-6.15,0H417.8v-1h3.08Zm-6.16,0h-3.08v-1h3.08Zm-6.16,0h-3.07v-1h3.07Zm-6.15,0h-3.08v-1h3.08Zm-6.16,0h-3.07v-1h3.07Zm-6.15,0H387v-1h3.08Zm-6.16,0h-3.07v-1h3.07Zm-6.15,0h-3.08v-1h3.08Zm-6.16,0h-3.07v-1h3.07Zm-6.15,0H362.4v-1h3.08Zm-6.16,0h-3.07v-1h3.07Zm-6.15,0h-3.08v-1h3.08Zm-6.16,0h-3.07v-1H347Zm-6.15,0h-3.08v-1h3.08Zm-6.16,0h-3.07v-1h3.07Zm-6.15,0h-3.08v-1h3.08Zm-6.16,0h-3.07v-1h3.07Zm-6.15,0h-3.08v-1h3.08Zm-6.16,0H307v-1h3.07Zm-6.15,0h-3.08v-1h3.08Zm-6.16,0h-3.08v-1h3.08Zm-6.15,0h-3.08v-1h3.08Zm-6.16,0h-3.08v-1h3.08Zm-6.15,0h-3.08v-1h3.08Zm-6.16,0h-3.08v-1h3.08Zm-6.15,0h-3.08v-1H267Zm-6.16,0h-3.08v-1h3.08Zm-6.15,0h-3.08v-1h3.08Zm-6.16,0h-3.08v-1h3.08Zm-6.15,0H239.3v-1h3.08Zm-6.16,0h-3.08v-1h3.08Zm-6.15,0H227v-1h3.08Zm-6.16,0h-3.08v-1h3.08Zm-6.15,0h-3.08v-1h3.08Zm-6.16,0h-3.08v-1h3.08Zm-6.15,0h-3.08v-1h3.08Zm-6.16,0h-3.08v-1h3.08Zm-6.15,0h-3.08v-1h3.08Zm-6.16,0H183.9v-1H187Zm-6.16,0h-3.07v-1h3.07Zm-6.15,0h-3.08v-1h3.08Zm-6.16,0h-3.07v-1h3.07Zm-6.15,0h-3.08v-1h3.08Zm-6.16,0h-3.07v-1h3.07Zm-6.15,0h-.79a15.63,15.63,0,0,1-2.36-.18l.16-1a14.82,14.82,0,0,0,2.2.17h.79Zm286.36-.34-.22-1a14.76,14.76,0,0,0,2.82-.92l.42.94A16.17,16.17,0,0,1,436.41,320.51Zm-292.58-.66a15.42,15.42,0,0,1-2.84-1.43l.56-.87a14,14,0,0,0,2.65,1.34Zm298.35-1.93-.61-.83a14.42,14.42,0,0,0,2.22-2l.76.7A15.83,15.83,0,0,1,442.18,317.92Zm-303.67-1.48a15.36,15.36,0,0,1-2-2.45l.85-.57a14.28,14.28,0,0,0,1.9,2.28Zm307.93-3.19-.89-.52a14.67,14.67,0,0,0,1.24-2.7l1,.33A15.1,15.1,0,0,1,446.44,313.25ZM135,311.19a15,15,0,0,1-.87-3.06l1-.18a13.46,13.46,0,0,0,.82,2.85Zm313.47-3.93-1-.12a15.43,15.43,0,0,0,.1-1.67v-1.34h1v1.34A15.22,15.22,0,0,1,448.46,307.26ZM134.91,305h-1V301.9h1Zm313.65-3.93h-1V298h1Zm-313.65-2.23h-1v-3.07h1Zm313.65-3.92h-1v-3.08h1Zm-313.65-2.23h-1v-3.08h1Zm313.65-3.93h-1v-3.07h1Zm-313.65-2.23h-1v-3.07h1Zm313.65-3.92h-1v-3.08h1Zm-313.65-2.23h-1v-3.08h1Zm313.65-3.93h-1v-3.08h1ZM134.91,274.2h-1v-3.07h1Zm313.65-3.92h-1V267.2h1Zm-313.65-2.23h-1V265h1Zm313.65-3.93h-1V261h1Zm-313.65-2.23h-1v-3.07h1ZM448.56,258h-1v-3.08h1Zm-313.65-2.23h-1v-3.08h1Zm313.65-3.93h-1v-3.08h1Zm-313.65-2.23h-1v-3.07h1Zm313.65-3.92h-1v-3.08h1Zm-313.65-2.23h-1v-3.08h1Zm313.65-3.93h-1v-3.08h1Zm-313.65-2.23h-1V234.2h1Zm313.65-3.92h-1v-3.08h1Zm-313.65-2.23h-1V228h1Zm313.65-3.93h-1v-3.08h1ZM134.91,225h-1v-3.08h1ZM448.56,221h-1V218h1Zm-313.65-2.23h-1v-3.08h1Zm313.65-3.93h-1V211.8h1Zm-313.65-2.23h-1v-3.08h1Zm313.65-3.92h-1v-3.08h1ZM134.91,206.5h-1v-3.08h1Zm313.65-3.93h-1v-3.08h1Zm-313.65-2.23h-1v-3.08h1Zm313.65-3.93h-1v-3.07h1Zm-313.65-2.22h-1v-3.08h1Zm313.65-3.93h-1v-3.08h1ZM134.91,188h-1V185h1Zm313.65-3.93h-1V181h1Zm-313.65-2.22h-1V178.8h1ZM448.56,178h-1v-3.08h1Zm-313.65-2.23h-1v-3.08h1Zm313.65-3.93h-1v-3.07h1Zm-313.65-2.22h-1v-3.08h1Zm313.65-3.93h-1v-3.08h1Zm-313.65-2.23h-1v-3.08h1Zm313.65-3.93h-1v-3.07h1Zm-313.65-2.22h-1v-3.08h1Zm313.65-3.93h-1v-3.08h1ZM134.91,151.1h-1V148h1Zm313.65-3.93h-1V144.1h1ZM134.91,145h-1v-3.08h1ZM448.56,141h-1v-3.08h1Zm-313.65-2.23h-1v-3.08h1Zm313.65-3.93h-1v-3.07h1Zm-313.65-2.22h-1v-3.08h1Zm313.65-3.93h-1v-3.08h1Zm-313.65-2.23h-1V123.4h1Zm313.65-3.93h-1v-3.07h1Zm-313.65-2.22h-1V119a15.91,15.91,0,0,1,.11-1.83l1,.12a16.34,16.34,0,0,0-.1,1.71Zm312.4-3.83a14,14,0,0,0-.82-2.84l.95-.39a15.45,15.45,0,0,1,.89,3Zm-311.64-2.08-1-.33a15.34,15.34,0,0,1,1.33-2.88l.88.52A14.89,14.89,0,0,0,135.67,114.42ZM445.1,111a14.28,14.28,0,0,0-1.9-2.28l.72-.73a15.29,15.29,0,0,1,2,2.44Zm-306.42-1.69-.76-.69a15.36,15.36,0,0,1,2.37-2.12l.61.84A14.35,14.35,0,0,0,138.68,109.35Zm302.19-2.43a13.15,13.15,0,0,0-2.65-1.33l.37-1a16.07,16.07,0,0,1,2.84,1.43Zm-297.4-1-.42-.94a15.25,15.25,0,0,1,3-1l.21,1A14,14,0,0,0,143.47,105.9Zm291.89-1.07a14.41,14.41,0,0,0-2.17-.16h-.82v-1h.82a15,15,0,0,1,2.32.18Zm-6.07-.16h-3.08v-1h3.08Zm-6.16,0h-3.07v-1h3.07Zm-6.15,0H413.9v-1H417Zm-6.16,0h-3.07v-1h3.07Zm-6.15,0h-3.08v-1h3.08Zm-6.16,0h-3.07v-1h3.07Zm-6.15,0h-3.08v-1h3.08Zm-6.16,0h-3.07v-1h3.07Zm-6.15,0H377v-1h3.08Zm-6.16,0h-3.07v-1h3.07Zm-6.15,0h-3.08v-1h3.08Zm-6.16,0h-3.07v-1h3.07Zm-6.15,0h-3.08v-1h3.08Zm-6.16,0H346.2v-1h3.07Zm-6.15,0H340v-1h3.08Zm-6.16,0h-3.07v-1H337Zm-6.15,0h-3.08v-1h3.08Zm-6.16,0h-3.08v-1h3.08Zm-6.15,0h-3.08v-1h3.08Zm-6.16,0h-3.08v-1h3.08Zm-6.15,0h-3.08v-1h3.08Zm-6.16,0H297v-1H300Zm-6.15,0H290.8v-1h3.08Zm-6.16,0h-3.08v-1h3.08Zm-6.15,0h-3.08v-1h3.08Zm-6.16,0h-3.08v-1h3.08Zm-6.15,0h-3.08v-1h3.08Zm-6.16,0H260v-1h3.08Zm-6.15,0h-3.08v-1H257Zm-6.16,0h-3.08v-1h3.08Zm-6.15,0h-3.08v-1h3.08Zm-6.16,0H235.4v-1h3.08Zm-6.15,0h-3.08v-1h3.08Zm-6.16,0h-3.08v-1h3.08Zm-6.15,0h-3.08v-1H220Zm-6.16,0h-3.08v-1h3.08Zm-6.16,0h-3.07v-1h3.07Zm-6.15,0h-3.08v-1h3.08Zm-6.16,0h-3.07v-1h3.07Zm-6.15,0h-3.08v-1h3.08Zm-6.16,0H180v-1h3.07Zm-6.15,0h-3.08v-1h3.08Zm-6.16,0H167.7v-1h3.07Zm-6.15,0h-3.08v-1h3.08Zm-6.16,0h-3.07v-1h3.07Zm-6.15,0h-3.05l0-1h3.08Z" style="fill: rgb(245, 245, 245); transform-origin: 291.24px 212.25px;" id="el8fg8alm68hd" class="animable"></path><rect x="57" y="72.78" width="267.43" height="174.22" rx="12.32" style="fill: rgb(245, 245, 245); transform-origin: 190.715px 159.89px;" id="elyc2bbfasgh" class="animable"></rect><path d="M312.11,72.78H69.32A12.35,12.35,0,0,0,57,85.1H324.43A12.35,12.35,0,0,0,312.11,72.78Z" style="fill: rgb(235, 235, 235); transform-origin: 190.715px 78.94px;" id="elfv0f0h0bmmm" class="animable"></path><rect x="73.43" y="93.89" width="45.87" height="10.95" style="fill: rgb(255, 255, 255); transform-origin: 96.365px 99.365px;" id="eljl4ippphos" class="animable"></rect><rect x="126.57" y="93.89" width="69.96" height="10.95" style="fill: rgb(255, 255, 255); transform-origin: 161.55px 99.365px;" id="el3b14rxraqm5" class="animable"></rect><rect x="80.71" y="112.11" width="59.18" height="10.95" style="fill: rgb(255, 255, 255); transform-origin: 110.3px 117.585px;" id="elk9l42f7kco" class="animable"></rect><rect x="147.16" y="112.11" width="90.27" height="10.95" style="fill: rgb(255, 255, 255); transform-origin: 192.295px 117.585px;" id="el7xsehujd6b4" class="animable"></rect><rect x="126.57" y="130.34" width="69.96" height="10.95" style="fill: rgb(255, 255, 255); transform-origin: 161.55px 135.815px;" id="elfa6zl65x5zb" class="animable"></rect><rect x="95.26" y="148.57" width="59.18" height="10.95" style="fill: rgb(255, 255, 255); transform-origin: 124.85px 154.045px;" id="el834u1ly3dsd" class="animable"></rect><rect x="161.72" y="148.57" width="90.27" height="10.95" style="fill: rgb(255, 255, 255); transform-origin: 206.855px 154.045px;" id="elbif5kovsbkm" class="animable"></rect><rect x="102.54" y="221.49" width="45.87" height="10.95" style="fill: rgb(255, 255, 255); transform-origin: 125.475px 226.965px;" id="elp0qeeb8ores" class="animable"></rect><rect x="155.68" y="221.49" width="69.96" height="10.95" style="fill: rgb(255, 255, 255); transform-origin: 190.66px 226.965px;" id="elobx00gbppo" class="animable"></rect><rect x="109.81" y="203.26" width="59.18" height="10.95" style="fill: rgb(255, 255, 255); transform-origin: 139.4px 208.735px;" id="el3bhkguhmjbl" class="animable"></rect><rect x="176.27" y="203.26" width="90.27" height="10.95" style="fill: rgb(255, 255, 255); transform-origin: 221.405px 208.735px;" id="ellobr1txgq8j" class="animable"></rect><rect x="95.26" y="166.8" width="31.31" height="10.95" style="fill: rgb(255, 255, 255); transform-origin: 110.915px 172.275px;" id="ellm7oyaoqcvs" class="animable"></rect><rect x="133.85" y="166.8" width="90.27" height="10.95" style="fill: rgb(255, 255, 255); transform-origin: 178.985px 172.275px;" id="el8s33vpgt7do" class="animable"></rect><path d="M303.1,78.94a3.77,3.77,0,1,1-3.77-3.77A3.76,3.76,0,0,1,303.1,78.94Z" style="fill: rgb(255, 255, 255); transform-origin: 299.33px 78.94px;" id="el3nel86nmdb" class="animable"></path><path d="M288.55,78.94a3.77,3.77,0,1,1-3.77-3.77A3.76,3.76,0,0,1,288.55,78.94Z" style="fill: rgb(255, 255, 255); transform-origin: 284.78px 78.94px;" id="elej99b6ealbd" class="animable"></path><circle cx="270.23" cy="78.94" r="3.77" style="fill: rgb(255, 255, 255); transform-origin: 270.23px 78.94px;" id="el51w8jyuw84" class="animable"></circle><path d="M429.3,95.51A19,19,0,0,0,403.17,78a23,23,0,0,0-43.09,5.08,19.78,19.78,0,0,0,1.29,39.52h62.94a14,14,0,0,0,5-27.13Z" style="fill: rgb(245, 245, 245); transform-origin: 390.005px 93.8638px;" id="el5b3l0eugyc4" class="animable"></path><polygon points="394.38 101.28 378.19 85.1 362.01 101.28 370.64 101.28 370.64 141.16 385.75 141.16 385.75 101.28 394.38 101.28" style="fill: rgb(235, 235, 235); transform-origin: 378.195px 113.13px;" id="eltig56gkhjk" class="animable"></polygon><polygon points="383.18 148.34 399.36 164.53 415.55 148.34 406.92 148.34 406.92 108.46 391.81 108.46 391.81 148.34 383.18 148.34" style="fill: rgb(235, 235, 235); transform-origin: 399.365px 136.495px;" id="elyxp0f15zwgd" class="animable"></polygon></g><g id="freepik--Shadow--inject-5" class="animable" style="transform-origin: 245px 416.24px;"><ellipse id="freepik--path--inject-5" cx="245" cy="416.24" rx="193.89" ry="11.32" style="fill: rgb(245, 245, 245); transform-origin: 245px 416.24px;" class="animable"></ellipse></g><g id="freepik--Device--inject-5" class="animable" style="transform-origin: 250.26px 261.15px;"><polygon points="310.82 134.72 310.82 243.81 214.19 243.81 214.19 108.97 285.06 108.97 310.82 134.72" style="fill: #1F50BE; transform-origin: 262.505px 176.39px;" id="elkjq7fenpkc8" class="animable"></polygon><g id="eld1ppfqjkbm8"><polygon points="310.82 134.72 310.82 243.81 214.19 243.81 214.19 108.97 285.06 108.97 310.82 134.72" style="fill: rgb(255, 255, 255); opacity: 0.8; transform-origin: 262.505px 176.39px;" class="animable" id="elk3biwrt21m"></polygon></g><g id="eldtm6bbafip"><rect x="214.19" y="181.83" width="96.63" height="6.59" style="fill: #1F50BE; opacity: 0.2; transform-origin: 262.505px 185.125px;" class="animable" id="elufra3lg5kg"></rect></g><polygon points="310.82 134.72 285.06 134.72 285.06 108.97 310.82 134.72" style="fill: #1F50BE; transform-origin: 297.94px 121.845px;" id="elef60r0dwqsa" class="animable"></polygon><path d="M283.57,330.49H213.34s4.41,57.83-8.51,81.27h87.24C279.16,388.32,283.57,330.49,283.57,330.49Z" style="fill: #1F50BE; transform-origin: 248.45px 371.125px;" id="eldw1jt1ng0a" class="animable"></path><g id="elsxrujphfffk"><path d="M284.94,386.81c-3.71-25.71-1.37-56.32-1.37-56.32H213.34s2.1,27.56-.85,52.34Z" style="opacity: 0.2; transform-origin: 248.715px 358.65px;" class="animable" id="eldopyo1vrks"></path></g><path d="M302.21,409.73H194.7a3.61,3.61,0,0,0-3.6,3.6H305.81A3.61,3.61,0,0,0,302.21,409.73Z" style="fill: #1F50BE; transform-origin: 248.455px 411.53px;" id="el5olqdpigedb" class="animable"></path><rect x="402.5" y="298.79" width="1.03" height="7.04" style="fill: #1F50BE; transform-origin: 403.015px 302.31px;" id="el2lr0tx1z9am" class="animable"></rect><rect x="402.5" y="272.26" width="1.03" height="20.18" style="fill: #1F50BE; transform-origin: 403.015px 282.35px;" id="elw3958pb4j4" class="animable"></rect><rect x="96.99" y="186.78" width="302.93" height="189.03" rx="7.07" style="fill: #1F50BE; transform-origin: 248.455px 281.295px;" id="elszo6epmk9q" class="animable"></rect><rect x="101.45" y="191.32" width="294" height="139.17" rx="5.39" style="fill: rgb(255, 255, 255); transform-origin: 248.45px 260.905px;" id="el63snvszmqc7" class="animable"></rect><g id="elgwqa4ctsh6v"><path d="M97,335v33.72a7.09,7.09,0,0,0,7.07,7.07H392.85a7.09,7.09,0,0,0,7.07-7.07V335Z" style="fill: rgb(255, 255, 255); opacity: 0.9; transform-origin: 248.46px 355.395px;" class="animable" id="elvswjequimmh"></path></g><g id="el5f50xlf683o"><circle cx="248.45" cy="355.42" r="6.81" style="fill: #1F50BE; opacity: 0.5; transform-origin: 248.45px 355.42px;" class="animable" id="elvsw7mm7v6ie"></circle></g><g id="elbjc7q19es07"><path d="M177.37,166.15V264.6h98.45ZM199,218.39,223.58,243H199Z" style="fill: #1F50BE; opacity: 0.4; transform-origin: 226.595px 215.375px;" class="animable" id="elpzziewxv98h"></path></g><path d="M290.19,280.3v20.26a12.4,12.4,0,0,0,12.36,12.37H374a12.41,12.41,0,0,0,12.37-12.37V229.12A12.4,12.4,0,0,0,374,216.76H302.55a12.39,12.39,0,0,0-12.36,12.36v22.21" style="fill: rgb(255, 255, 255); transform-origin: 338.28px 264.845px;" id="elvukvb0oioyh" class="animable"></path><path d="M374,313.44h-4v-1h4.11l0,1Zm-8.08,0h-4.12v-1h4.12Zm-8.25,0h-4.12v-1h4.12Zm-8.24,0H345.3v-1h4.12Zm-8.24,0h-4.12v-1h4.12Zm-8.24,0h-4.13v-1h4.13Zm-8.25,0h-4.12v-1h4.12Zm-8.24,0h-4.12v-1h4.12Zm-8.24,0h-4.13v-1h4.13Zm-8.33-.28a12.8,12.8,0,0,1-4-1.58l.54-.88a11.53,11.53,0,0,0,3.65,1.45Zm78.48-.49-.35-1a12,12,0,0,0,3.42-1.94l.65.8A12.79,12.79,0,0,1,378.36,312.67Zm-85.69-3.87a12.82,12.82,0,0,1-2.16-3.69l1-.36a12,12,0,0,0,2,3.39Zm92.24-1.43-.87-.55a11.67,11.67,0,0,0,1.5-3.63l1,.23A12.67,12.67,0,0,1,384.91,307.37Zm-95.23-6.45c0-.12,0-.24,0-.36v-3.77h1v4.1Zm97.19-1.71h-1v-4.12h1Zm-96.17-6.55h-1v-4.12h1ZM386.87,291h-1v-4.12h1Zm-96.17-6.55h-1V280.3h1Zm96.17-1.7h-1V278.6h1Zm0-8.24h-1v-4.12h1Zm0-8.24h-1v-4.12h1Zm0-8.24h-1v-4.13h1Zm-96.17-7.28h-1v-4.13h1Zm96.17-1h-1v-4.12h1Zm-96.17-7.28h-1v-4.12h1Zm96.17-1h-1v-4.12h1Zm-96.17-7.28h-1v-4.12h1Zm96.17-1h-1v-4.13h1Zm-95.79-7.12-1-.26a12.59,12.59,0,0,1,1.76-3.9l.85.58A11.66,11.66,0,0,0,291.08,226.15Zm94.11-.88a11.5,11.5,0,0,0-1.89-3.45l.81-.64a12.86,12.86,0,0,1,2.06,3.75Zm-89.8-5.57-.63-.82a13,13,0,0,1,3.78-2l.32,1A12.06,12.06,0,0,0,295.39,219.7Zm85-.53a11.7,11.7,0,0,0-3.61-1.56l.25-1A12.87,12.87,0,0,1,381,218.3Zm-7.58-1.9H368.7v-1h4.12Zm-8.24,0h-4.12v-1h4.12Zm-8.24,0h-4.13v-1h4.13Zm-8.25,0H344v-1h4.12Zm-8.24,0h-4.12v-1h4.12Zm-8.24,0h-4.13v-1h4.13Zm-8.25,0h-4.12v-1h4.12Zm-8.24,0H311v-1h4.12Zm-8.24,0h-4.12v-1h4.12Z" style="fill: #1F50BE; transform-origin: 338.285px 264.815px;" id="elch0a3xo0uo" class="animable"></path><path d="M290.36,266.87V254.31A24.85,24.85,0,0,0,288,264.65l1.69,1.69v1.21l-2.51,2.51a1.22,1.22,0,0,0-.33-.9c-.6-.61-1.85-.34-2.78.59s-1.2,2.17-.59,2.78,1.85.34,2.78-.59h0l3.43-3.43V274h0c0,1.32.69,2.39,1.54,2.39s1.55-1.07,1.55-2.39-.69-2.38-1.55-2.38a1.19,1.19,0,0,0-.86.41v-4.17l1.29-1.29H294a24.77,24.77,0,0,0,5.63-9Zm-4.42,4.76c-.66.67-1.56.86-2,.43s-.24-1.33.43-2,1.56-.86,2-.43S286.62,271,285.94,271.63Zm5.28.63c.62,0,1.12.76,1.12,1.71s-.5,1.72-1.12,1.72-1.11-.77-1.11-1.72S290.61,272.26,291.22,272.26Z" style="fill: #1F50BE; transform-origin: 291.392px 265.35px;" id="elax7lrenpiav" class="animable"></path><path d="M251.63,289.93h0a6.11,6.11,0,0,1,0-8.6l3.86-3.86a6.1,6.1,0,0,1,8.61,0h0a6.09,6.09,0,0,1,0,8.6l-3.86,3.86A6.1,6.1,0,0,1,251.63,289.93Z" style="fill: rgb(38, 50, 56); transform-origin: 257.869px 283.7px;" id="elys3o7jzo5" class="animable"></path><path d="M232.11,316.75l23.68-23.68-7.29-7.29-23.68,23.68a1.87,1.87,0,0,0-.36,2.15h0a1.79,1.79,0,0,1,0,1.64,2.83,2.83,0,0,0,.48,3.36,2.86,2.86,0,0,0,3.37.49,1.79,1.79,0,0,1,1.64,0h0A1.86,1.86,0,0,0,232.11,316.75Z" style="fill: rgb(255, 255, 255); transform-origin: 239.951px 301.61px;" id="el8col7urwkdn" class="animable"></path><path d="M227,318.47a3.87,3.87,0,0,1-3.41-5.71.74.74,0,0,0,0-.69,2.91,2.91,0,0,1,.55-3.34l23.68-23.68a1,1,0,0,1,1.46,0l7.28,7.29a1,1,0,0,1,0,1.46l-23.68,23.68h0a2.89,2.89,0,0,1-3.33.55.77.77,0,0,0-.69,0A3.79,3.79,0,0,1,227,318.47Zm21.53-31.23-22.95,22.95a.82.82,0,0,0-.16,1,2.82,2.82,0,0,1,0,2.59,1.81,1.81,0,0,0,2.45,2.45,2.82,2.82,0,0,1,2.59,0,.84.84,0,0,0,1-.16h0l23-22.95Z" style="fill: #1F50BE; transform-origin: 240.001px 301.602px;" id="ellcflwvak5f" class="animable"></path><path d="M246.57,281.88h0a3,3,0,0,1,4.23,0l8.89,8.89a3,3,0,0,1,0,4.22h0a3,3,0,0,1-4.22,0l-8.9-8.89A3,3,0,0,1,246.57,281.88Z" style="fill: rgb(38, 50, 56); transform-origin: 253.13px 288.433px;" id="elokvlni5vfs" class="animable"></path></g><g id="freepik--pen-tool--inject-5" class="animable" style="transform-origin: 396.41px 134.857px;"><g id="elbc725k22wh7"><rect x="334.35" y="176.78" width="26.47" height="13.96" rx="1.77" style="fill: rgb(38, 50, 56); transform-origin: 347.585px 183.76px; transform: rotate(45deg);" class="animable" id="elwb61s9cv4rh"></rect></g><path d="M386.92,144.43l-32.26,32.26-5.44-5.45c4.71-4.71,2-15.7,2-15.7l8.95-8.95c14.48-2,45-23.67,45-23.67l1,1L387,143A1,1,0,0,0,386.92,144.43Z" style="fill: #1F50BE; transform-origin: 377.695px 149.805px;" id="elmj47b0obcc" class="animable"></path><path d="M384.75,171.2l-8.95,9s-11-2.74-15.7,2l-5.44-5.44,32.26-32.26a1,1,0,0,0,1.43-.11l19.12-19.12,1,1S386.78,156.73,384.75,171.2Z" style="fill: #1F50BE; transform-origin: 381.565px 153.735px;" id="elusogtkum8lo" class="animable"></path><g id="el6bo2219jrfa"><path d="M384.75,171.2l-8.95,9s-11-2.74-15.7,2l-5.44-5.44,32.26-32.26a1,1,0,0,0,1.43-.11l19.12-19.12,1,1S386.78,156.73,384.75,171.2Z" style="fill: rgb(255, 255, 255); opacity: 0.2; transform-origin: 381.565px 153.735px;" class="animable" id="el7pgl98phz9y"></path></g><path d="M412,189.89l-.58-.58a49.31,49.31,0,1,0-69.73-69.73l-.58-.58A50.13,50.13,0,1,1,412,189.89Z" style="fill: #1F50BE; transform-origin: 384.098px 146.902px;" id="elwisqlozjwc" class="animable"></path><g id="elwdfchw4zim"><rect x="411.34" y="56.28" width="0.82" height="126.01" style="fill: #1F50BE; transform-origin: 411.75px 119.285px; transform: rotate(-45deg);" class="animable" id="elcm08qqquvhb"></rect></g><g id="el9m1w5ik5y1c"><rect x="409.15" y="116.69" width="5.2" height="5.2" style="fill: #1F50BE; transform-origin: 411.75px 119.29px; transform: rotate(45deg);" class="animable" id="el5vogh0zi24a"></rect></g><path d="M411.75,123.63l-4.34-4.34,4.34-4.34,4.35,4.34Zm-3-4.34,3,3,3-3-3-3Z" style="fill: #1F50BE; transform-origin: 411.755px 119.29px;" id="elsmbuqsmnm4" class="animable"></path><g id="elelxyd8b76ts"><rect x="338.84" y="116.69" width="5.2" height="5.2" style="fill: rgb(255, 255, 255); transform-origin: 341.44px 119.29px; transform: rotate(45deg);" class="animable" id="el17c1fr80y56"></rect></g><path d="M341.44,123.63l-4.34-4.34,4.34-4.34,4.34,4.34Zm-3-4.34,3,3,3-3-3-3Z" style="fill: #1F50BE; transform-origin: 341.44px 119.29px;" id="el7pnbd6sw0h" class="animable"></path><g id="els341otcixj"><rect x="409.31" y="187.15" width="5.2" height="5.2" style="fill: rgb(255, 255, 255); transform-origin: 411.91px 189.75px; transform: rotate(45deg);" class="animable" id="elzu1oh0cb31h"></rect></g><path d="M411.91,194.09l-4.34-4.34,4.34-4.34,4.34,4.34Zm-3-4.34,3,3,3-3-3-3Z" style="fill: #1F50BE; transform-origin: 411.91px 189.75px;" id="elebddndrvsrg" class="animable"></path><path d="M458.3,165.83a2.6,2.6,0,1,1,0-3.68A2.61,2.61,0,0,1,458.3,165.83Z" style="fill: rgb(255, 255, 255); transform-origin: 456.461px 163.99px;" id="elmbtstpmykz" class="animable"></path><path d="M456.46,167.06a3.07,3.07,0,1,1,2.17-.9A3.05,3.05,0,0,1,456.46,167.06Zm0-5.2a2.13,2.13,0,1,0,1.51.62A2.15,2.15,0,0,0,456.46,161.86Z" style="fill: #1F50BE; transform-origin: 456.458px 163.99px;" id="elk3rl8ppr189" class="animable"></path><path d="M369,76.57a2.6,2.6,0,1,1,0-3.67A2.6,2.6,0,0,1,369,76.57Z" style="fill: rgb(255, 255, 255); transform-origin: 367.158px 74.735px;" id="el9xaqjgqlbb" class="animable"></path><path d="M367.2,77.8a3.07,3.07,0,1,1,3.07-3.07,3,3,0,0,1-.9,2.17h0A3,3,0,0,1,367.2,77.8Zm0-5.2a2.1,2.1,0,0,0-1.5.63,2.13,2.13,0,0,0,3,3h0a2.13,2.13,0,0,0,.63-1.51,2.15,2.15,0,0,0-2.14-2.13Z" style="fill: #1F50BE; transform-origin: 367.2px 74.7301px;" id="elg7uudwm1wg" class="animable"></path></g><g id="freepik--color-palette--inject-5" class="animable" style="transform-origin: 117.611px 223.24px;"><rect x="124.32" y="127.41" width="39.84" height="163.49" style="fill: #1F50BE; transform-origin: 144.24px 209.155px;" id="el8wu9zo253mc" class="animable"></rect><g id="el3jbakbmc0e5"><rect x="124.32" y="127.41" width="39.84" height="163.49" style="fill: rgb(255, 255, 255); opacity: 0.7; transform-origin: 144.24px 209.155px;" class="animable" id="el258ub1ilyjw"></rect></g><g id="el5v457e9ayx5"><rect x="127.3" y="135.2" width="33.89" height="15.57" style="fill: rgb(38, 50, 56); opacity: 0.3; transform-origin: 144.245px 142.985px;" class="animable" id="elcezc3jfrp4j"></rect></g><g id="ell8i78an9x0m"><rect x="127.3" y="154.03" width="33.89" height="15.57" style="fill: rgb(38, 50, 56); opacity: 0.416667; transform-origin: 144.245px 161.815px;" class="animable" id="el8a880j54h3l"></rect></g><g id="el1lwd6aijf3y"><rect x="127.3" y="172.86" width="33.89" height="15.57" style="fill: rgb(38, 50, 56); opacity: 0.533333; transform-origin: 144.245px 180.645px;" class="animable" id="eldv0uu59n2ab"></rect></g><g id="elqbejh7cvylk"><rect x="127.3" y="191.7" width="33.89" height="15.57" style="fill: rgb(38, 50, 56); opacity: 0.65; transform-origin: 144.245px 199.485px;" class="animable" id="el4e060k70wp5"></rect></g><g id="els5ag8z3osh"><rect x="127.3" y="210.53" width="33.89" height="15.57" style="fill: rgb(38, 50, 56); opacity: 0.766667; transform-origin: 144.245px 218.315px;" class="animable" id="el7vnuhpfrvdv"></rect></g><g id="elxflanbr49mh"><rect x="127.3" y="229.36" width="33.89" height="15.57" style="fill: rgb(38, 50, 56); opacity: 0.883333; transform-origin: 144.245px 237.145px;" class="animable" id="elfvpoyik9aol"></rect></g><rect x="127.3" y="248.2" width="33.89" height="15.57" style="fill: rgb(38, 50, 56); transform-origin: 144.245px 255.985px;" id="eljepinr1dwoi" class="animable"></rect><g id="elzvhkxa3l4ai"><rect x="110.57" y="139.35" width="39.84" height="163.49" style="fill: #1F50BE; transform-origin: 130.49px 221.095px; transform: rotate(-9.9deg);" class="animable" id="el6lfwr6w2abe"></rect></g><g id="el148nb5t9r7y"><rect x="110.57" y="139.35" width="39.84" height="163.49" style="fill: rgb(255, 255, 255); opacity: 0.8; transform-origin: 130.49px 221.095px; transform: rotate(-9.9deg);" class="animable" id="eloz6vyl18zk"></rect></g><g id="ell7attokysy8"><rect x="102.17" y="148.12" width="33.89" height="15.57" style="fill: #1F50BE; transform-origin: 119.115px 155.905px; transform: rotate(-9.9deg);" class="animable" id="eluh8niufjwn"></rect></g><g id="elzctd6zflq5"><rect x="105.41" y="166.68" width="33.89" height="15.57" style="fill: #1F50BE; transform-origin: 122.355px 174.465px; transform: rotate(-9.9deg);" class="animable" id="elehdwc50uni4"></rect></g><g id="elg4vahwhhj9t"><rect x="108.65" y="185.23" width="33.89" height="15.57" style="fill: #1F50BE; transform-origin: 125.595px 193.015px; transform: rotate(-9.9deg);" class="animable" id="elscsmf2s23g"></rect></g><g id="el1qm5mpx98gc"><rect x="111.88" y="203.78" width="33.89" height="15.57" style="fill: #1F50BE; transform-origin: 128.825px 211.565px; transform: rotate(-9.9deg);" class="animable" id="eliwjvm4jd9l"></rect></g><g id="el4cewb55yfz6"><rect x="115.12" y="222.34" width="33.89" height="15.57" style="fill: #1F50BE; transform-origin: 132.065px 230.125px; transform: rotate(-9.9deg);" class="animable" id="el3dlnf06bv5c"></rect></g><g id="elyugxh2e3tv"><rect x="118.36" y="240.89" width="33.89" height="15.57" style="fill: #1F50BE; transform-origin: 135.305px 248.675px; transform: rotate(-9.74364deg);" class="animable" id="elt7stb655toi"></rect></g><g id="el1cqj0k4xy3i"><rect x="121.59" y="259.44" width="33.89" height="15.57" style="fill: #1F50BE; transform-origin: 138.535px 267.225px; transform: rotate(-9.9deg);" class="animable" id="elj5gjvlrvneq"></rect></g><g id="el4x3tuqfeny2"><rect x="102.17" y="148.12" width="33.89" height="15.57" style="opacity: 0.05; transform-origin: 119.115px 155.905px; transform: rotate(-9.9deg);" class="animable" id="elr68jmexg1o"></rect></g><g id="elald54kufgyu"><rect x="105.41" y="166.68" width="33.89" height="15.57" style="opacity: 0.1; transform-origin: 122.355px 174.465px; transform: rotate(-9.9deg);" class="animable" id="elgeve54vd8ef"></rect></g><g id="elq9exi5seeed"><rect x="108.65" y="185.23" width="33.89" height="15.57" style="opacity: 0.2; transform-origin: 125.595px 193.015px; transform: rotate(-9.9deg);" class="animable" id="elizb8uv3eij"></rect></g><g id="el7diqvg5i5io"><rect x="111.88" y="203.78" width="33.89" height="15.57" style="opacity: 0.3; transform-origin: 128.825px 211.565px; transform: rotate(-9.9deg);" class="animable" id="elj4mbvd96ej"></rect></g><g id="elthtpkovdy3m"><rect x="115.12" y="222.34" width="33.89" height="15.57" style="opacity: 0.4; transform-origin: 132.065px 230.125px; transform: rotate(-9.9deg);" class="animable" id="el92tulhe0hdn"></rect></g><g id="ele16wcvj696k"><rect x="118.36" y="240.89" width="33.89" height="15.57" style="opacity: 0.5; transform-origin: 135.305px 248.675px; transform: rotate(-9.74364deg);" class="animable" id="el43fcnwwhmjx"></rect></g><g id="elruwth433q1m"><rect x="121.59" y="259.44" width="33.89" height="15.57" style="opacity: 0.6; transform-origin: 138.535px 267.225px; transform: rotate(-9.9deg);" class="animable" id="elf2tmwi2et6e"></rect></g><g id="elwdbu1p3czxq"><rect x="97.69" y="153.68" width="39.84" height="163.49" style="fill: #1F50BE; transform-origin: 117.61px 235.425px; transform: rotate(-19.9deg);" class="animable" id="el0tgj5gyvcn2"></rect></g><g id="el5xpl70s3196"><rect x="97.69" y="153.68" width="39.84" height="163.49" style="fill: rgb(255, 255, 255); opacity: 0.9; transform-origin: 117.61px 235.425px; transform: rotate(-19.9deg);" class="animable" id="elpmanwz2dczs"></rect></g><g id="elp6baa79m4y8"><rect x="78.15" y="165.41" width="33.89" height="15.57" style="fill: #1F50BE; transform-origin: 95.095px 173.195px; transform: rotate(-19.9deg);" class="animable" id="el2p811ewet83"></rect></g><g id="elkcx9cd2txo"><rect x="84.56" y="183.12" width="33.89" height="15.57" style="fill: #1F50BE; transform-origin: 101.505px 190.905px; transform: rotate(-19.9deg);" class="animable" id="elqco64gczv1f"></rect></g><g id="elctemjmgwmhg"><rect x="90.96" y="200.83" width="33.89" height="15.57" style="fill: #1F50BE; transform-origin: 107.905px 208.615px; transform: rotate(-19.9deg);" class="animable" id="elitzq2r05mrs"></rect></g><g id="elpbxw3z7wnt9"><rect x="97.37" y="218.54" width="33.89" height="15.57" style="fill: #1F50BE; transform-origin: 114.315px 226.325px; transform: rotate(-19.9deg);" class="animable" id="el851iycmwp9t"></rect></g><g id="el9miau28k8d9"><rect x="103.78" y="236.25" width="33.89" height="15.57" style="fill: #1F50BE; transform-origin: 120.725px 244.035px; transform: rotate(-19.9deg);" class="animable" id="elq2gckhpq3il"></rect></g><g id="eljztq36jalvb"><rect x="110.19" y="253.96" width="33.89" height="15.57" style="fill: #1F50BE; transform-origin: 127.135px 261.745px; transform: rotate(-19.9deg);" class="animable" id="el0raee605rib"></rect></g><g id="elf6s6kszbeak"><rect x="116.6" y="271.67" width="33.89" height="15.57" style="fill: #1F50BE; transform-origin: 133.545px 279.455px; transform: rotate(-19.9deg);" class="animable" id="elhya1fqckojo"></rect></g><g id="el4dsy2bhb8qv"><rect x="78.15" y="165.41" width="33.89" height="15.57" style="fill: rgb(255, 255, 255); opacity: 0.6; transform-origin: 95.095px 173.195px; transform: rotate(-19.9deg);" class="animable" id="elu62nvo5zc2a"></rect></g><g id="el4z2xfiryda5"><rect x="84.56" y="183.12" width="33.89" height="15.57" style="fill: rgb(255, 255, 255); opacity: 0.5; transform-origin: 101.505px 190.905px; transform: rotate(-19.9deg);" class="animable" id="elgmf1aqp6bll"></rect></g><g id="eln8m17w7296s"><rect x="90.96" y="200.83" width="33.89" height="15.57" style="fill: rgb(255, 255, 255); opacity: 0.4; transform-origin: 107.905px 208.615px; transform: rotate(-19.9deg);" class="animable" id="elfzr8k9r5yk"></rect></g><g id="elujsm9xhyr5j"><rect x="97.37" y="218.54" width="33.89" height="15.57" style="fill: rgb(255, 255, 255); opacity: 0.3; transform-origin: 114.315px 226.325px; transform: rotate(-19.9deg);" class="animable" id="elozb3his7ga"></rect></g><g id="el1p62welfw3q"><rect x="103.78" y="236.25" width="33.89" height="15.57" style="fill: rgb(255, 255, 255); opacity: 0.2; transform-origin: 120.725px 244.035px; transform: rotate(-19.9deg);" class="animable" id="elugwseku7pcg"></rect></g><g id="elx4vsbieo33"><rect x="110.19" y="253.96" width="33.89" height="15.57" style="fill: rgb(255, 255, 255); opacity: 0.1; transform-origin: 127.135px 261.745px; transform: rotate(-19.9deg);" class="animable" id="elw0h9py00czb"></rect></g></g><defs>     <filter id="active" height="200%">         <feMorphology in="SourceAlpha" result="DILATED" operator="dilate" radius="2"></feMorphology>                <feFlood flood-color="#32DFEC" flood-opacity="1" result="PINK"></feFlood>        <feComposite in="PINK" in2="DILATED" operator="in" result="OUTLINE"></feComposite>        <feMerge>            <feMergeNode in="OUTLINE"></feMergeNode>            <feMergeNode in="SourceGraphic"></feMergeNode>        </feMerge>    </filter>    <filter id="hover" height="200%">        <feMorphology in="SourceAlpha" result="DILATED" operator="dilate" radius="2"></feMorphology>                <feFlood flood-color="#ff0000" flood-opacity="0.5" result="PINK"></feFlood>        <feComposite in="PINK" in2="DILATED" operator="in" result="OUTLINE"></feComposite>        <feMerge>            <feMergeNode in="OUTLINE"></feMergeNode>            <feMergeNode in="SourceGraphic"></feMergeNode>        </feMerge>            <feColorMatrix type="matrix" values="0   0   0   0   0                0   1   0   0   0                0   0   0   0   0                0   0   0   1   0 "></feColorMatrix>    </filter></defs></svg>